<!DOCTYPE svg PUBLIC "-//W3C//DTD SVG 1.1//EN" "http://www.w3.org/Graphics/SVG/1.1/DTD/svg11.dtd">
<!-- Uploaded to: SVG Repo, www.svgrepo.com, Transformed by: SVG Repo Mixer Tools -->
<svg fill="#ffffff" version="1.1" id="Capa_1" xmlns="http://www.w3.org/2000/svg" xmlns:xlink="http://www.w3.org/1999/xlink" width="800px" height="800px" viewBox="0 0 454.909 454.909" xml:space="preserve">
<g id="SVGRepo_bgCarrier" stroke-width="0"/>
<g id="SVGRepo_tracerCarrier" stroke-linecap="round" stroke-linejoin="round"/>
<g id="SVGRepo_iconCarrier"> <g> <g> <path d="M394.981,212.017c14.39-14.09,23.425-33.642,23.425-55.327c0-42.786-34.813-77.592-77.6-77.592 c-20.525,0-39.101,8.117-52.99,21.185c-2.527-2.017-5.127-3.956-7.793-5.804l7.488-6.281L264.68,72.76l7.42,16.63 c-21.526-12.912-46.667-20.361-73.54-20.361c-79.096,0-143.451,64.348-143.451,143.454c0,0.47,0.005,0.935,0.015,1.406 C21.396,232.089,0,267.504,0,306.169c0,57.828,47.046,104.888,104.885,104.888h243.647c57.828,0,104.888-47.055,104.888-104.888 C453.425,264.959,429.641,229.145,394.981,212.017z M340.806,90.304c36.61,0,66.395,29.776,66.395,66.386 c0,20.285-9.199,38.403-23.593,50.573c-13-4.603-27.179-6.747-41.991-5.746c-2.811-36.963-19.688-70.052-45.275-93.921 C308.117,96.903,323.679,90.304,340.806,90.304z M348.539,388.632H104.89c-45.472,0-82.471-36.994-82.471-82.475 c0-32.448,19.193-61.997,48.89-75.272l7.093-3.174l-0.604-9.685c-0.122-1.839-0.264-3.672-0.264-5.543 c0-66.74,54.297-121.041,121.038-121.041c66.744,0,121.053,54.295,121.037,121.114c-0.033,0.523-0.065,1.032-0.076,1.547 l-0.126,13.689l13.444-2.577c5.308-1.018,10.594-1.532,15.701-1.532c45.477,0,82.479,37.002,82.479,82.474 C431.031,351.638,394.016,388.632,348.539,388.632z"/> <polygon points="454.909,136.816 427.494,133.965 430.131,148.876 "/> <polygon points="413.606,69.144 390.783,84.583 402.377,94.31 "/> <polygon points="443.037,215.197 423.874,195.388 416.304,208.505 "/> <polygon points="338.494,43.853 330.924,70.35 346.062,70.35 "/> </g> </g> </g>
</svg>