<!DOCTYPE svg PUBLIC "-//W3C//DTD SVG 1.1//EN" "http://www.w3.org/Graphics/SVG/1.1/DTD/svg11.dtd">
<!-- Uploaded to: SVG Repo, www.svgrepo.com, Transformed by: SVG Repo Mixer Tools -->
<svg fill="#ffffff" width="800px" height="800px" viewBox="0 0 256 256" id="Flat" xmlns="http://www.w3.org/2000/svg">
<g id="SVGRepo_bgCarrier" stroke-width="0"/>
<g id="SVGRepo_tracerCarrier" stroke-linecap="round" stroke-linejoin="round"/>
<g id="SVGRepo_iconCarrier"> <path d="M152,188a24,24,0,1,1-36-20.771V92a12,12,0,0,1,24,0v75.229A24.00875,24.00875,0,0,1,152,188Zm40,0A64,64,0,1,1,76,150.6875V56a52,52,0,0,1,104,0v94.68945A64.10855,64.10855,0,0,1,192,188Zm-24,0a40.03963,40.03963,0,0,0-9.22559-25.55371,12.00187,12.00187,0,0,1-2.77295-7.67285L156,56a28,28,0,0,0-56,0v98.77539a12.00265,12.00265,0,0,1-2.90625,7.83008A40.00041,40.00041,0,1,0,168,188Z"/> </g>
</svg>